<svg width="16" height="16" viewBox="0 0 16 16" fill="none" xmlns="http://www.w3.org/2000/svg">
<g clip-path="url(#clip0)">
<path fill-rule="evenodd" clip-rule="evenodd" d="M0 7.97973C0 3.5653 3.58616 0 7.99371 0C8.40935 0 8.82273 0.0345985 9.24367 0.102668C10.7539 0.3427 12.1844 1.01617 13.331 2.04608C14.463 3.0619 15.2992 4.39768 15.7013 5.86539L15.7033 5.87256L15.7033 5.87257C15.8699 6.50448 15.9991 7.23873 15.9873 7.99185L15.9872 7.99736L15.9872 7.99736C15.964 9.01731 15.6945 10.1344 14.8353 10.9786L14.8293 10.9845L14.8232 10.9902C14.2204 11.5572 13.5079 11.7934 12.8309 11.8863C12.2149 11.9707 11.5777 11.9414 11.0461 11.917C11.0106 11.9153 10.9756 11.9137 10.9411 11.9122C10.9253 11.9116 10.9097 11.911 10.8942 11.9105C10.2717 11.8878 9.91746 11.8748 9.63622 12.025C9.58527 12.0534 9.56437 12.0825 9.55011 12.1159C9.53223 12.1578 9.51535 12.2342 9.52717 12.3512C9.54713 12.4809 9.59383 12.6289 9.66464 12.831C9.69053 12.903 9.71671 12.9609 9.75356 13.0422C9.77348 13.0862 9.79652 13.1371 9.82432 13.2009C9.89196 13.356 9.9759 13.5651 10.018 13.8121C10.0913 14.2144 10.07 14.7831 9.71412 15.2443C9.38118 15.6788 8.88128 15.8452 8.56052 15.9191L8.55149 15.9211L8.55148 15.9211C7.81266 16.082 7.08704 15.9676 6.50215 15.8379C5.90421 15.7052 5.3168 15.5259 4.74497 15.2747L4.74126 15.2731C3.35532 14.6558 2.15405 13.6398 1.31726 12.3699M7.99371 1.5484C4.43704 1.5484 1.5484 4.42472 1.5484 7.97973C1.5484 9.23233 1.91776 10.4675 2.61006 11.5177L2.61013 11.5178C3.28309 12.5391 4.25319 13.3602 5.36953 13.8579C5.83143 14.0605 6.31905 14.2112 6.83743 14.3262C7.36758 14.4438 7.81966 14.4946 8.21749 14.4091C8.3096 14.3876 8.38074 14.3623 8.43095 14.3367C8.46964 14.317 8.48399 14.3033 8.48615 14.3011L8.48644 14.3007C8.48807 14.2976 8.4944 14.2839 8.49916 14.2546C8.50634 14.2104 8.50614 14.1512 8.49437 14.0877L8.49183 14.074L8.49195 14.074C8.48198 14.0143 8.45825 13.9419 8.40498 13.8198C8.39525 13.7975 8.3827 13.7697 8.36837 13.738C8.32113 13.6335 8.25456 13.4862 8.20601 13.3505L8.20435 13.3459L8.20436 13.3459C8.13292 13.1422 8.03576 12.86 7.99272 12.5593L7.99114 12.5483L7.98988 12.5372C7.91367 11.8679 8.12749 11.0868 8.89338 10.6664L8.8986 10.6635L8.89861 10.6635C9.57374 10.2997 10.3557 10.3357 10.8549 10.3586C10.9067 10.361 10.9554 10.3633 11.0006 10.3649L11.0073 10.3652L11.0073 10.3652C11.0301 10.3662 11.0529 10.3672 11.0755 10.3683C11.6437 10.3939 12.1496 10.4168 12.6205 10.3522C13.0884 10.2881 13.46 10.1439 13.7562 9.86809C14.216 9.41232 14.4207 8.75705 14.4392 7.96482C14.4477 7.39871 14.3499 6.81398 14.207 6.27097C13.8847 5.09747 13.2114 4.01911 12.2966 3.19828L12.2963 3.19799C11.3745 2.37 10.2196 1.82542 8.99971 1.63173L8.99742 1.63136C8.65336 1.57567 8.32241 1.5484 7.99371 1.5484ZM0 7.97973C0 9.53498 0.458066 11.0664 1.31719 12.3698Z" fill="#202020"/>
<path d="M7.9937 4.74858C8.63348 4.74858 9.15213 4.23094 9.15213 3.59239C9.15213 2.95385 8.63348 2.4362 7.9937 2.4362C7.35391 2.4362 6.83527 2.95385 6.83527 3.59239C6.83527 4.23094 7.35391 4.74858 7.9937 4.74858Z" fill="#202020"/>
<path d="M3.9185 9.14624C4.55829 9.14624 5.07694 8.6286 5.07694 7.99005C5.07694 7.35151 4.55829 6.83386 3.9185 6.83386C3.27872 6.83386 2.76007 7.35151 2.76007 7.99005C2.76007 8.6286 3.27872 9.14624 3.9185 9.14624Z" fill="#202020"/>
<path d="M11.223 6.18336C11.8628 6.18336 12.3814 5.66572 12.3814 5.02718C12.3814 4.38863 11.8628 3.87099 11.223 3.87099C10.5832 3.87099 10.0646 4.38863 10.0646 5.02718C10.0646 5.66572 10.5832 6.18336 11.223 6.18336Z" fill="#202020"/>
<path d="M4.89073 6.17318C5.53052 6.17318 6.04916 5.65554 6.04916 5.01699C6.04916 4.37845 5.53052 3.86081 4.89073 3.86081C4.25095 3.86081 3.7323 4.37845 3.7323 5.01699C3.7323 5.65554 4.25095 6.17318 4.89073 6.17318Z" fill="#202020"/>
</g>
<defs>
<clipPath id="clip0">
<rect width="16" height="16" fill="white"/>
</clipPath>
</defs>
</svg>
