<svg fill="none" height="50" viewBox="0 0 50 50" width="50" xmlns="http://www.w3.org/2000/svg"><path d="m47.4235 24.8576c.0322-2.0572-.3223-4.1144-.8058-5.9467-1.1282-4.1144-3.4813-7.8753-6.6724-10.73617-3.2233-2.89299-7.2525-4.7895-11.5073-5.46453-1.1927-.19287-2.3531-.2893-3.5135-.2893-12.4099 0-22.49896 10.029-22.49896 22.4367 0 4.3717 1.28934 8.679 3.70685 12.3435 2.35304 3.568 5.73761 6.4288 9.63781 8.1646 1.6117.7072 3.2878 1.2215 5.0284 1.6072 1.7406.3858 3.5779.6429 5.3508.2572.8381-.1929 1.7084-.5465 2.2241-1.2215.548-.7072.6447-1.7036.4835-2.5715-.1612-.9644-.6769-1.768-.9992-2.668-.2257-.6429-.4513-1.3179-.548-1.993-.1612-1.4143.2901-2.7322 1.5794-3.4394 1.6117-.8679 3.5457-.7072 5.3186-.6429 3.5779.1607 7.5426.4179 10.3469-2.218 2.063-2.025 2.8043-4.7895 2.8688-7.6182z" stroke="#000" stroke-miterlimit="10" stroke-width="2"/><g fill="#000"><path d="m23.9745 13.9517c1.6546 0 2.9958-1.3376 2.9958-2.9875 0-1.64997-1.3412-2.98752-2.9958-2.98752-1.6545 0-2.9957 1.33755-2.9957 2.98752 0 1.6499 1.3412 2.9875 2.9957 2.9875z"/><path d="m10.9926 28.8892c1.6545 0 2.9958-1.3376 2.9958-2.9875 0-1.65-1.3413-2.9875-2.9958-2.9875-1.65452 0-2.99577 1.3375-2.99577 2.9875 0 1.6499 1.34125 2.9875 2.99577 2.9875z"/><path d="m34.9589 16.9392c1.6545 0 2.9958-1.3375 2.9958-2.9875 0-1.6499-1.3413-2.9875-2.9958-2.9875s-2.9958 1.3376-2.9958 2.9875c0 1.65 1.3413 2.9875 2.9958 2.9875z"/><path d="m13.9882 17.9351c1.6545 0 2.9958-1.3376 2.9958-2.9875 0-1.65-1.3413-2.9875-2.9958-2.9875s-2.9958 1.3375-2.9958 2.9875c0 1.6499 1.3413 2.9875 2.9958 2.9875z"/></g></svg>