<svg fill="none" height="50" viewBox="0 0 50 50" width="50" xmlns="http://www.w3.org/2000/svg"><path d="m0 0h50v50h-50z" fill="#fff"/><path d="m12.1762 18.6957c-1.2276 0-2.1762 1.0044-2.1762 2.1762v9.207c0 1.2276 1.0044 2.232 2.232 2.232s2.232-1.0044 2.1762-2.232v-9.207c0-1.1718-1.0044-2.1762-2.232-2.1762zm17.8002-8.3142 1.5624-2.79002c.0558-.1674.0558-.3348-.1116-.3906s-.3348 0-.3906.1116l-1.5624 2.84582c-1.2834-.55802-2.79-.89282-4.2966-.89282-1.5624 0-3.0132.3348-4.2966.89282l-1.5624-2.84582c-.0558-.1674-.279-.2232-.3906-.1116-.1674.0558-.2232.279-.1116.3906l1.5624 2.79002c-3.1806 1.5624-5.1894 4.5756-5.1894 7.9794h19.8648c0-3.4038-2.0646-6.417-5.0778-7.9794zm-9.3744 4.3524c-.4464 0-.837-.3906-.837-.837s.3906-.837.837-.837.837.3906.837.837c0 .5022-.3906.837-.837.837zm9.0396 0c-.4464 0-.837-.3906-.837-.837s.3906-.837.837-.837.837.3906.837.837c0 .5022-.3906.837-.837.837zm-14.3964 4.3524v14.2848c0 1.2834 1.0602 2.3436 2.3436 2.3436h1.6182v4.9104c0 1.2276 1.0044 2.232 2.1762 2.232 1.2276 0 2.232-1.0044 2.232-2.232v-4.9104h2.9574v4.9104c0 1.2276 1.0044 2.232 2.1762 2.1762 1.2276 0 2.232-1.0044 2.232-2.232v-4.8546h1.6182c1.2834 0 2.3436-1.0602 2.3436-2.3436v-14.2848zm24.9984 1.7856c0-1.2276-1.0044-2.1762-2.1762-2.1762-1.2276 0-2.1762 1.0044-2.1762 2.232v9.207c0 1.2276 1.0044 2.1762 2.1762 2.1762 1.2276 0 2.1762-1.0044 2.1762-2.232z" fill="#a4c639"/></svg>