<svg width="16" height="16" viewBox="0 0 16 16" fill="none" xmlns="http://www.w3.org/2000/svg">
<path d="M8 0C3.58203 0 0 3.58203 0 8C0 11.5352 2.292 14.5332 5.47119 15.5908C5.87109 15.6641 6.01709 15.417 6.01709 15.206C6.01709 15.0156 6.00977 14.3848 6.00586 13.7168C3.78125 14.2002 3.31103 12.7734 3.31103 12.7734C2.94678 11.8496 2.42284 11.6035 2.42284 11.6035C1.6958 11.1074 2.478 11.1172 2.478 11.1172C3.28122 11.1728 3.70409 11.9414 3.70409 11.9414C4.41797 13.1641 5.57714 12.8105 6.03222 12.6055C6.10494 12.0898 6.31197 11.7363 6.54003 11.5371C4.76416 11.335 2.896 10.6484 2.896 7.583C2.896 6.70897 3.20802 5.99609 3.71875 5.43603C3.6372 5.23291 3.36181 4.41894 3.79784 3.31788C3.79784 3.31788 4.46875 3.10303 5.99803 4.13819C6.63572 3.95997 7.31981 3.87208 7.99998 3.86914C8.67967 3.87208 9.36423 3.96094 10.0029 4.13916C11.5293 3.10303 12.2012 3.31884 12.2012 3.31884C12.6387 4.42089 12.3633 5.23388 12.2812 5.43603C12.7939 5.99609 13.1035 6.70899 13.1035 7.583C13.1035 10.6563 11.2324 11.333 9.4502 11.5313C9.7383 11.7793 9.99317 12.2656 9.99317 13.0117C9.99317 14.0811 9.98242 14.9434 9.98242 15.207C9.98242 15.4199 10.1279 15.6689 10.5332 15.5908C13.71 14.5313 16 11.5332 16 8C16 3.58203 12.418 0 8 0Z" fill="white"/>
</svg>
