<svg width="16" height="16" viewBox="0 0 16 16" fill="none" xmlns="http://www.w3.org/2000/svg">
<path d="M7.92001 3.30999C8.69873 3.30999 9.33001 2.67871 9.33001 1.89999C9.33001 1.12127 8.69873 0.48999 7.92001 0.48999C7.14129 0.48999 6.51001 1.12127 6.51001 1.89999C6.51001 2.67871 7.14129 3.30999 7.92001 3.30999Z" fill="#202020"/>
<path d="M7.96005 15.51C8.73877 15.51 9.37005 14.8787 9.37005 14.1C9.37005 13.3213 8.73877 12.69 7.96005 12.69C7.18133 12.69 6.55005 13.3213 6.55005 14.1C6.55005 14.8787 7.18133 15.51 7.96005 15.51Z" fill="#202020"/>
<path d="M7.92001 9.41C8.69873 9.41 9.33001 8.77872 9.33001 8C9.33001 7.22127 8.69873 6.59 7.92001 6.59C7.14129 6.59 6.51001 7.22127 6.51001 8C6.51001 8.77872 7.14129 9.41 7.92001 9.41Z" fill="#202020"/>
</svg>
