<svg width="16" height="16" viewBox="0 0 16 16" fill="none" xmlns="http://www.w3.org/2000/svg">
<path fill-rule="evenodd" clip-rule="evenodd" d="M1 1H15V15H1V1ZM2.55556 2.55556V13.4444H13.4444V2.55556H2.55556Z" fill="#202020"/>
<path fill-rule="evenodd" clip-rule="evenodd" d="M4.25 8C4.25 5.92893 5.92893 4.25 8 4.25C10.0711 4.25 11.75 5.92893 11.75 8C11.75 10.0711 10.0711 11.75 8 11.75C5.92893 11.75 4.25 10.0711 4.25 8ZM8 5.75C6.75736 5.75 5.75 6.75736 5.75 8C5.75 9.24264 6.75736 10.25 8 10.25C9.24264 10.25 10.25 9.24264 10.25 8C10.25 6.75736 9.24264 5.75 8 5.75Z" fill="#202020"/>
</svg>
