<svg width="16" height="16" viewBox="0 0 16 16" fill="none" xmlns="http://www.w3.org/2000/svg">
<path d="M5.49279 0.435677C7.25701 -0.159123 9.23627 -0.146285 10.9917 0.482747C11.966 0.833636 12.8569 1.38137 13.6205 2.07031C13.366 2.33989 13.0895 2.59236 12.8262 2.85339C12.3259 3.34121 11.8256 3.82903 11.3253 4.31685C10.8293 3.85471 10.2237 3.50382 9.56542 3.30698C8.79302 3.08018 7.95919 3.04595 7.16924 3.21283C6.24763 3.4054 5.39185 3.8761 4.72917 4.53509C4.19376 5.06142 3.79 5.71185 3.54424 6.41363C2.65335 5.73752 1.76246 5.0657 0.867188 4.3896C1.81074 2.54957 3.50474 1.09894 5.49279 0.435677Z" fill="#EA4335"/>
<path d="M0.160134 6.38368C0.304958 5.69046 0.541943 5.01435 0.871089 4.38104C1.76198 5.05715 2.65286 5.72897 3.54814 6.40507C3.19705 7.40211 3.19705 8.51041 3.54814 9.50317C2.65725 10.1793 1.76637 10.8554 0.875478 11.5272C0.0504188 9.95676 -0.199732 8.11245 0.160134 6.38368Z" fill="#FBBC05"/>
<path d="M8.16113 6.46497C10.7197 6.46497 13.2826 6.46497 15.8412 6.46497C16.0957 7.86424 16.0387 9.32343 15.6349 10.6928C15.2619 11.9465 14.5553 13.1105 13.5679 13.9962C12.7033 13.3415 11.8388 12.6868 10.9742 12.0321C11.83 11.4716 12.4356 10.5644 12.6068 9.57162C11.1234 9.57162 9.64009 9.57162 8.15674 9.57162C8.16113 8.53607 8.16113 7.50052 8.16113 6.46497Z" fill="#4285F4"/>
<path d="M0.867188 11.5315C1.75808 10.8597 2.64896 10.1835 3.53985 9.50745C3.88216 10.4874 4.54046 11.356 5.4094 11.9508C5.95359 12.3231 6.57677 12.5884 7.22629 12.7168C7.86702 12.8452 8.52971 12.8281 9.17483 12.7211C9.81557 12.6098 10.4344 12.383 10.9742 12.0279C11.8387 12.6826 12.7033 13.3373 13.5678 13.992C12.6331 14.835 11.4613 15.4084 10.2237 15.6865C8.85446 15.9903 7.40622 15.9989 6.04575 15.6437C4.96615 15.3656 3.95238 14.8649 3.07905 14.1845C2.16183 13.4742 1.39821 12.5585 0.867188 11.5315Z" fill="#34A853"/>
</svg>
