<svg width="16" height="16" viewBox="0 0 16 16" fill="none" xmlns="http://www.w3.org/2000/svg">
<path fill-rule="evenodd" clip-rule="evenodd" d="M7.18759 3.79894C7.8391 3.44678 8.57699 3.25 9.36466 3.25C11.943 3.25 14.0275 5.3735 14.0275 8C14.0275 10.6265 11.943 12.75 9.36466 12.75C6.90063 12.75 4.88695 10.8074 4.71704 8.34118L4.70987 7.31888L6.38993 9.03034L7.43113 7.96968L3.96557 4.43935L0.5 7.96968L1.5412 9.03034L3.23724 7.30261L3.24491 8.39659L3.24632 8.41849C3.45671 11.678 6.11266 14.25 9.36466 14.25C12.7562 14.25 15.5 11.4549 15.5 8C15.5 4.54507 12.7562 1.75 9.36466 1.75C8.33205 1.75 7.35766 2.00893 6.49742 2.47392L7.18759 3.79894Z" fill="#202020"/>
</svg>
