<svg width="16" height="16" viewBox="0 0 16 16" fill="none" xmlns="http://www.w3.org/2000/svg">
<path d="M12.6301 7.97998C12.6301 8.7587 13.2614 9.38998 14.0401 9.38998C14.8188 9.38998 15.4501 8.7587 15.4501 7.97998C15.4501 7.20126 14.8188 6.56998 14.0401 6.56998C13.2614 6.56998 12.6301 7.20126 12.6301 7.97998Z" fill="#202020"/>
<path d="M0.429999 8.02002C0.429999 8.79874 1.06128 9.43002 1.84 9.43002C2.61872 9.43002 3.25 8.79874 3.25 8.02002C3.25 7.24129 2.61872 6.61002 1.84 6.61002C1.06128 6.61002 0.429999 7.24129 0.429999 8.02002Z" fill="#202020"/>
<path d="M6.5301 7.97998C6.5301 8.7587 7.16138 9.38998 7.9401 9.38998C8.71882 9.38998 9.3501 8.7587 9.3501 7.97998C9.3501 7.20126 8.71882 6.56998 7.9401 6.56998C7.16138 6.56998 6.5301 7.20126 6.5301 7.97998Z" fill="#202020"/>
</svg>
