<svg width="16" height="16" viewBox="0 0 16 16" fill="none" xmlns="http://www.w3.org/2000/svg">
<path fill-rule="evenodd" clip-rule="evenodd" d="M5.75 5C5.75 3.75736 6.75736 2.75 8 2.75C9.24264 2.75 10.25 3.75736 10.25 5V6H11.75V5C11.75 2.92893 10.0711 1.25 8 1.25C5.92893 1.25 4.25 2.92893 4.25 5V6H5.75V5ZM8 13.25C6.75736 13.25 5.75 12.2426 5.75 11V10H4.25V11C4.25 13.0711 5.92893 14.75 8 14.75C10.0711 14.75 11.75 13.0711 11.75 11V10H10.25V11C10.25 12.2426 9.24264 13.25 8 13.25Z" fill="#202020"/>
</svg>
