<svg width="16" height="16" viewBox="0 0 16 16" fill="none" xmlns="http://www.w3.org/2000/svg">
<path fill-rule="evenodd" clip-rule="evenodd" d="M14.4731 7.9995C11.5479 12.8859 4.45214 12.8859 1.52691 7.9995C4.44217 3.11444 11.5578 3.11444 14.4731 7.9995ZM16 8.01097L15.7473 8.46095C12.3491 14.513 3.65092 14.513 0.252663 8.46095L0 8.01097L0.144109 7.73828C3.48285 1.42057 12.5171 1.42057 15.8559 7.73828L16 8.01097Z" fill="#202020"/>
<path d="M10.5 8C10.5 9.38071 9.38071 10.5 8 10.5C6.61929 10.5 5.5 9.38071 5.5 8C5.5 6.61929 6.61929 5.5 8 5.5C9.38071 5.5 10.5 6.61929 10.5 8Z" fill="#202020"/>
</svg>
