<svg width="16" height="16" viewBox="0 0 16 16" fill="none" xmlns="http://www.w3.org/2000/svg">
<path d="M8 7.84L0 3.92L8 0L16 3.92L8 7.84ZM3.49714 3.92L8 6.12571L12.5029 3.92L8 1.71429L3.49714 3.92Z" fill="#202020"/>
<path d="M13.04 10.6286L11.2914 11.4857L12.5029 12.08L8 14.2857L3.49714 12.08L4.70857 11.4857L2.96 10.6286L0 12.08L8 16L16 12.08L13.04 10.6286Z" fill="#202020"/>
<path d="M13.04 6.56L11.2914 7.41714L12.5029 8L8 10.2057L3.49714 8L4.70857 7.41714L2.96 6.56L0 8L8 11.92L16 8L13.04 6.56Z" fill="#202020"/>
</svg>
