<svg width="16" height="16" viewBox="0 0 16 16" fill="none" xmlns="http://www.w3.org/2000/svg">
<path fill-rule="evenodd" clip-rule="evenodd" d="M7.20616 3.05622C9.4981 3.05622 11.3561 4.91421 11.3561 7.20616C11.3561 9.4981 9.4981 11.3561 7.20616 11.3561C4.91421 11.3561 3.05622 9.4981 3.05622 7.20616C3.05622 4.91421 4.91421 3.05622 7.20616 3.05622ZM7.20616 1.5C10.3576 1.5 12.9123 4.05473 12.9123 7.20616C12.9123 8.5013 12.4808 9.69567 11.7538 10.6533L14.5 13.3996L13.3996 14.5L10.6533 11.7538C9.69567 12.4808 8.5013 12.9123 7.20616 12.9123C4.05473 12.9123 1.5 10.3576 1.5 7.20616C1.5 4.05473 4.05473 1.5 7.20616 1.5Z" fill="#202020"/>
</svg>
