<svg fill="none" height="50" viewBox="0 0 50 50" width="50" xmlns="http://www.w3.org/2000/svg"><path d="m0 0h50v50h-50z" fill="#fff"/><g fill="#00d8ff"><path d="m44.9181 25.0041c0-2.6568-3.3115-5.1745-8.3888-6.7358 1.1717-5.199.6509-9.33527-1.6436-10.65953-.5289-.31063-1.1472-.45777-1.8226-.45777v1.8229c.3743 0 .6754.07357.9276.21254 1.1066.63761 1.5866 3.06546 1.2124 6.18806-.0895.7684-.236 1.5777-.415 2.4033-1.5948-.3924-3.336-.6948-5.1668-.891-1.0984-1.5123-2.2375-2.8856-3.3848-4.0872 2.6526-2.4769 5.1424-3.83387 6.8348-3.83387v-1.82291c-2.2376 0-5.1668 1.6022-8.1285 4.38148-2.9617-2.76293-5.8909-4.34878-8.1285-4.34878v1.82291c1.6843 0 4.1823 1.34877 6.8348 3.80927-1.1391 1.2017-2.2783 2.5668-3.3604 4.0791-1.8389.1962-3.5801.4986-5.1749.8992-.1871-.8175-.3255-1.6104-.4231-2.3706-.3824-3.1227.0895-5.55048 1.1879-6.19626.2441-.14714.5615-.21254.9357-.21254v-1.82291c-.6834 0-1.3018.14715-1.8388.45778-2.2864 1.32426-2.799 5.45233-1.6192 10.63503-5.06098 1.5695-8.3563 4.079-8.3563 6.7276 0 2.6567 3.31159 5.1744 8.3888 6.7357-1.1716 5.199-.6509 9.3353 1.6436 10.6595.5289.3107 1.1473.4578 1.8308.4578 2.2375 0 5.1667-1.6022 8.1284-4.3815 2.9617 2.763 5.8909 4.3488 8.1285 4.3488.6835 0 1.3018-.1471 1.8389-.4578 2.2863-1.3242 2.7989-5.4523 1.6191-10.635 5.0447-1.5613 8.34-4.079 8.34-6.7275zm-10.5938-5.4524c-.3011 1.0545-.6753 2.1417-1.0984 3.2289-.3336-.654-.6835-1.3079-1.0659-1.9619-.3743-.6539-.773-1.2915-1.1717-1.9128 1.1554.1717 2.2701.3842 3.336.6458zm-3.7266 8.7058c-.6346 1.1035-1.2855 2.1499-1.9609 3.1226-1.2123.1063-2.441.1635-3.6777.1635-1.2287 0-2.4573-.0572-3.6615-.1553-.6753-.9727-1.3344-2.0109-1.9691-3.1063-.6183-1.0708-1.1798-2.158-1.6924-3.2534.5045-1.0954 1.0741-2.1908 1.6843-3.2616.6347-1.1036 1.2856-2.1499 1.9609-3.1227 1.2124-.1063 2.441-.1635 3.6778-.1635 1.2286 0 2.4572.0572 3.6614.1553.6754.9728 1.3344 2.011 1.9691 3.1063.6184 1.0709 1.1798 2.1581 1.6924 3.2535-.5126 1.0954-1.074 2.1907-1.6843 3.2616zm2.6282-1.0627c.4393 1.0954.8136 2.1908 1.1228 3.2535-1.0659.2615-2.1887.4822-3.3523.6539.3987-.6294.7974-1.2752 1.1717-1.9373.3743-.654.7242-1.3161 1.0578-1.9701zm-8.2506 8.7222c-.7567-.7848-1.5134-1.6594-2.2619-2.6159.7323.0327 1.4808.0573 2.2375.0573.7649 0 1.5216-.0164 2.262-.0573-.7323.9565-1.489 1.8311-2.2376 2.6159zm-6.0536-4.8148c-1.1554-.1717-2.2701-.3842-3.336-.6458.3011-1.0545.6754-2.1417 1.0985-3.2289.3336.654.6834 1.3079 1.0658 1.9619.3825.6539.773 1.2915 1.1717 1.9128zm6.013-17.0111c.7567.7848 1.5134 1.6594 2.2619 2.6159-.7323-.0327-1.4808-.0573-2.2375-.0573-.7649 0-1.5216.0164-2.262.0573.7323-.9565 1.489-1.8311 2.2376-2.6159zm-6.0211 4.8148c-.3987.6294-.7974 1.2752-1.1717 1.9373-.3743.654-.7241 1.308-1.0577 1.9619-.4394-1.0954-.8137-2.1907-1.1229-3.2534 1.0659-.2534 2.1888-.4741 3.3523-.6458zm-7.3636 10.2344c-2.88039-1.2343-4.74368-2.8529-4.74368-4.1362 0-1.2834 1.86329-2.9102 4.74368-4.1363.6997-.3025 1.4645-.5722 2.2538-.8257.4638 1.6022 1.074 3.2698 1.8307 4.9783-.7485 1.7003-1.3506 3.3597-1.8063 4.9537-.8055-.2534-1.5704-.5313-2.2782-.8338zm4.3775 11.6814c-1.1066-.6376-1.5867-3.0655-1.2124-6.1881.0895-.7684.236-1.5777.415-2.4033 1.5947.3924 3.336.6948 5.1667.891 1.0984 1.5123 2.2376 2.8856 3.3848 4.0872-2.6525 2.4769-5.1423 3.8339-6.8347 3.8339-.3662-.0082-.6754-.0818-.9194-.2207zm19.3-6.229c.3824 3.1227-.0895 5.5505-1.188 6.1963-.2441.1471-.5614.2125-.9357.2125-1.6843 0-4.1822-1.3488-6.8347-3.8093 1.1391-1.2017 2.2782-2.5668 3.3604-4.0791 1.8389-.1962 3.5801-.4986 5.1749-.8992.1871.8257.3336 1.6186.4231 2.3788zm3.1326-5.4524c-.6998.3025-1.4646.5722-2.2539.8257-.4638-1.6022-1.074-3.2698-1.8307-4.9783.7485-1.7003 1.3507-3.3597 1.8063-4.9537.8055.2534 1.5704.5313 2.2864.8338 2.8803 1.2343 4.7436 2.8529 4.7436 4.1363-.0081 1.2833-1.8714 2.9101-4.7517 4.1362z"/><path d="m24.9508 28.7397c2.0537 0 3.7185-1.6726 3.7185-3.7358s-1.6648-3.7357-3.7185-3.7357c-2.0536 0-3.7184 1.6725-3.7184 3.7357s1.6648 3.7358 3.7184 3.7358z"/></g></svg>