<svg fill="none" height="50" viewBox="0 0 50 50" width="50" xmlns="http://www.w3.org/2000/svg"><path d="m0 0h50v50h-50z" fill="#fff"/><path d="m40.7713 12.9455c-.308-.8111-1.0473-1.9509-2.0947-2.762-.616-.46209-1.3142-.91387-2.3-1.20137-1.0678-.30804-2.3821-.41072-3.9839-.41072h-14.7857c-1.6121 0-2.9161.10268-3.9737.42098-.9857.29777-1.7147.73929-2.3102 1.20131-1.0473.8009-1.78663 1.9509-2.10494 2.7621-.6366 1.6326-.64687 3.4808-.64687 4.6513v14.7857c0 1.1706.01027 3.0188.64687 4.6616.31831.8112 1.05764 1.9509 2.10494 2.7621.6058.462 1.3245.9138 2.3102 1.2013 1.0576.3081 2.3616.4108 3.9737.4108h14.7857c1.6121 0 2.9161-.1027 3.9737-.421.9857-.2978 1.7147-.7393 2.3102-1.2014 1.0474-.8009 1.7867-1.9509 2.105-2.762.6468-1.6326.6468-3.4911.6468-4.6616v-14.7857c0-1.1706-.0102-3.0188-.6468-4.6617zm-25.6902 18.2152h-1.2219v-7.3005h1.2219zm-.6058-8.5326c-.4107 0-.7598-.3388-.7598-.7598s.3388-.7598.7598-.7598.7701.3388.7701.7598c-.0103.421-.3491.7598-.7701.7598zm7.3415 8.7174c-3.2241 0-5.2571-2.3-5.2571-5.9656s2.033-5.9759 5.2571-5.9759 5.2572 2.3103 5.2572 5.9759-2.0331 5.9656-5.2572 5.9656zm10.6375 0c-2.4232 0-4.1277-1.3348-4.2406-3.3268h1.0987c.1232 1.3862 1.4272 2.3308 3.2446 2.3308 1.7353 0 2.9777-.9446 2.9777-2.2486 0-1.0782-.7496-1.725-2.4643-2.1563l-1.4375-.3696c-2.146-.5442-3.1009-1.4478-3.1009-2.9777 0-1.8687 1.6839-3.2036 3.9634-3.2036 2.2589 0 3.9018 1.3349 3.9737 3.1728h-1.0987c-.1027-1.304-1.263-2.1768-2.9058-2.1768-1.6018 0-2.7929.8933-2.7929 2.1665 0 .996.7188 1.5813 2.4232 2.0125l1.2527.3183c2.3308.5853 3.3063 1.4786 3.3063 3.0907 0 2.033-1.6326 3.3678-4.1996 3.3678zm-6.4995-5.9656c0 3.029-1.6018 4.9491-4.138 4.9491-2.5361 0-4.1277-1.9201-4.1277-4.9491 0-3.0393 1.5916-4.9594 4.1277-4.9594 2.5362 0 4.138 1.9201 4.138 4.9594z" fill="#202020"/></svg>