<svg width="120" height="120" viewBox="0 0 120 120" fill="none" xmlns="http://www.w3.org/2000/svg">
<circle cx="60" cy="60" r="60" fill="#202020"/>
<path d="M65.4999 82.8431C65.4357 82.9903 65.3071 83.0769 65.1581 83.0769H54.5246C54.2675 83.0769 54.0981 82.8027 54.2033 82.5689L71.769 39.8414C71.8333 39.6942 71.9618 39.6076 72.1108 39.6076H82.7239C82.981 39.6076 83.1504 39.8818 83.0453 40.1157L65.4999 82.8431ZM63.1454 36.9231C63.4024 36.9231 63.5719 37.1973 63.4667 37.4311L50.5429 68.8893C50.4143 69.1866 50.0083 69.1866 49.8797 68.8893L36.9559 37.4311C36.8478 37.1973 37.0202 36.9231 37.2772 36.9231H63.1454Z" fill="white"/>
</svg>
