<svg width="16" height="16" viewBox="0 0 16 16" fill="none" xmlns="http://www.w3.org/2000/svg">
<path fill-rule="evenodd" clip-rule="evenodd" d="M4.67859 4.67857H11.3214V11.3214H4.67859V4.67857ZM6.17859 6.17857V9.82143H9.82145V6.17857H6.17859Z" fill="#202020"/>
<path fill-rule="evenodd" clip-rule="evenodd" d="M2.75 3.71429C2.75 4.24685 3.18173 4.67857 3.71429 4.67857L4.67857 4.67857L4.67857 3.71429L4.67857 3.71428C4.67857 3.18172 4.24684 2.75 3.71429 2.75C3.18173 2.75 2.75 3.18173 2.75 3.71429ZM3.71422 6.17857H3.71429H4.67857V9.82142H3.71429H3.71422C2.35326 9.82146 1.25 10.9247 1.25 12.2857C1.25 13.6467 2.3533 14.75 3.71429 14.75C5.07527 14.75 6.17857 13.6467 6.17857 12.2857V11.3214H9.82139V12.2857C9.82139 13.6467 10.9247 14.75 12.2857 14.75C13.6467 14.75 14.75 13.6467 14.75 12.2857C14.75 10.9247 13.6467 9.82142 12.2857 9.82142V10H12.2856V9.82142H11.3214V6.17857H12.2856V6H12.2857V6.17857C13.6467 6.17857 14.75 5.07527 14.75 3.71429C14.75 2.3533 13.6467 1.25 12.2857 1.25C10.9247 1.25 9.8214 2.35329 9.82139 3.71428V3.71429V4.67857H6.17857V3.71429V3.71428C6.17857 2.35329 5.07527 1.25 3.71429 1.25C2.3533 1.25 1.25 2.3533 1.25 3.71429C1.25 5.07525 2.35326 6.17853 3.71422 6.17857ZM12.2856 11V11.3214H11.3214V12.2857C11.3214 12.8183 11.7531 13.25 12.2857 13.25C12.8182 13.25 13.25 12.8183 13.25 12.2857C13.25 11.7531 12.8182 11.3214 12.2857 11.3214V11H12.2856ZM12.2857 5H12.2856V4.67857H11.3214V3.71429V3.71428C11.3214 3.18172 11.7531 2.75 12.2857 2.75C12.8182 2.75 13.25 3.18173 13.25 3.71429C13.25 4.24685 12.8182 4.67857 12.2857 4.67857V5ZM4.67857 11.3214V12.2857C4.67857 12.8183 4.24685 13.25 3.71429 13.25C3.18173 13.25 2.75 12.8183 2.75 12.2857C2.75 11.7532 3.18169 11.3215 3.71422 11.3214H3.71429H4.67857ZM6.17857 6.17857V9.82142H9.82139V6.17857H6.17857Z" fill="#202020"/>
</svg>
