<svg width="16" height="16" viewBox="0 0 16 16" fill="none" xmlns="http://www.w3.org/2000/svg">
<path fill-rule="evenodd" clip-rule="evenodd" d="M11.7029 1.46247L10.7404 0.5L7.5369 3.7035L10.7404 6.907L11.7029 5.94454L10.1424 4.38407H12.3559V10.1412C11.1818 10.4434 10.3142 11.5093 10.3142 12.7777C10.3142 14.2812 11.533 15.5 13.0365 15.5C14.54 15.5 15.7588 14.2812 15.7588 12.7777C15.7588 11.5093 14.8912 10.4434 13.7171 10.1412V3.02294H10.1424L11.7029 1.46247ZM4.32339 3.7035C4.32339 4.45523 3.71399 5.06463 2.96226 5.06463C2.21052 5.06463 1.60112 4.45523 1.60112 3.7035C1.60112 2.95177 2.21052 2.34237 2.96226 2.34237C3.71399 2.34237 4.32339 2.95177 4.32339 3.7035ZM3.64287 6.33999C4.81698 6.03777 5.68453 4.97195 5.68453 3.7035C5.68453 2.20003 4.46572 0.981232 2.96226 0.981232C1.45879 0.981232 0.23999 2.20003 0.23999 3.7035C0.23999 4.97198 1.10758 6.03783 2.28174 6.34002V10.1412C1.10758 10.4434 0.23999 11.5092 0.23999 12.7777C0.23999 14.2812 1.45879 15.5 2.96226 15.5C4.46572 15.5 5.68453 14.2812 5.68453 12.7777C5.68453 11.5093 4.81698 10.4435 3.64287 10.1412V6.33999ZM2.96226 14.1389C3.71399 14.1389 4.32339 13.5295 4.32339 12.7777C4.32339 12.026 3.71399 11.4166 2.96226 11.4166C2.21052 11.4166 1.60112 12.026 1.60112 12.7777C1.60112 13.5295 2.21052 14.1389 2.96226 14.1389ZM14.3976 12.7777C14.3976 13.5295 13.7882 14.1389 13.0365 14.1389C12.2848 14.1389 11.6754 13.5295 11.6754 12.7777C11.6754 12.026 12.2848 11.4166 13.0365 11.4166C13.7882 11.4166 14.3976 12.026 14.3976 12.7777Z" fill="#202020"/>
</svg>
