<svg width="16" height="16" viewBox="0 0 16 16" fill="none" xmlns="http://www.w3.org/2000/svg">
<path fill-rule="evenodd" clip-rule="evenodd" d="M4.29761 3.10719C5.5673 3.45648 6.5 4.61932 6.5 6C6.5 7.38068 5.5673 8.54352 4.29761 8.89281V16H2.79761V8.91732C1.4796 8.60114 0.5 7.41497 0.5 6C0.5 4.58503 1.4796 3.39886 2.79761 3.08268V0H4.29761V3.10719ZM5 6C5 6.82843 4.32843 7.5 3.5 7.5C2.67157 7.5 2 6.82843 2 6C2 5.17157 2.67157 4.5 3.5 4.5C4.32843 4.5 5 5.17157 5 6ZM12.5 8.5C11.6716 8.5 11 9.17157 11 10C11 10.8284 11.6716 11.5 12.5 11.5C13.3284 11.5 14 10.8284 14 10C14 9.17157 13.3284 8.5 12.5 8.5ZM11.75 7.09451C10.4561 7.42754 9.5 8.60212 9.5 10C9.5 11.3979 10.4561 12.5725 11.75 12.9055V16H13.25V12.9055C14.5439 12.5725 15.5 11.3979 15.5 10C15.5 8.60212 14.5439 7.42755 13.25 7.09451V0H11.75V7.09451Z" fill="#202020"/>
</svg>
