<svg width="16" height="16" viewBox="0 0 16 16" fill="none" xmlns="http://www.w3.org/2000/svg">
<path fill-rule="evenodd" clip-rule="evenodd" d="M9.31897 0.25H1.15002V8.41894H4.82052L4.5971 7.19203H2.37694V1.47692H8.09205V4.84202L9.31897 5.7805V0.25ZM4.9607 3.68801L4.96065 3.68797L7.0555 15.1919L7.05553 15.1918L4.9607 3.68801ZM6.52387 6.23643L11.1609 9.78338L11.161 9.78338L6.52387 6.23639L6.52387 6.23643ZM7.56321 11.944L7.56322 11.944L8.70777 9.79587L8.70773 9.79587L7.56321 11.944ZM14.8521 11.0204L4.69202 3.2488L6.96846 15.75L9.4738 11.0478L14.8521 11.0204ZM10.6164 9.60054L8.59601 9.61082L7.65022 11.386L6.79247 6.67557L10.6164 9.60054Z" fill="#202020"/>
</svg>
