<svg width="16" height="16" viewBox="0 0 16 16" fill="none" xmlns="http://www.w3.org/2000/svg">
<path fill-rule="evenodd" clip-rule="evenodd" d="M7.99995 8.00005C8.7692 8.00005 9.3928 7.37325 9.3928 6.60005C9.3928 5.82685 8.7692 5.20005 7.99995 5.20005C7.23069 5.20005 6.60709 5.82685 6.60709 6.60005C6.60709 7.37325 7.23069 8.00005 7.99995 8.00005ZM7.99995 9.40005C9.53846 9.40005 10.7857 8.14645 10.7857 6.60005C10.7857 5.05365 9.53846 3.80005 7.99995 3.80005C6.46144 3.80005 5.21423 5.05365 5.21423 6.60005C5.21423 8.14645 6.46144 9.40005 7.99995 9.40005Z" fill="#202020"/>
<path fill-rule="evenodd" clip-rule="evenodd" d="M10.7857 11.9667H5.21423V10.5667H10.7857V11.9667Z" fill="#202020"/>
<path fill-rule="evenodd" clip-rule="evenodd" d="M13.1071 2.4H2.89286V13.6H13.1071V2.4ZM1.5 1V15H14.5V1H1.5Z" fill="#202020"/>
</svg>
