<svg width="16" height="16" viewBox="0 0 16 16" fill="none" xmlns="http://www.w3.org/2000/svg">
<path fill-rule="evenodd" clip-rule="evenodd" d="M6.75615 1H9.24384L9.87236 2.25704C10.1715 2.3545 10.4602 2.47461 10.7366 2.61528L12.0702 2.17072L13.8293 3.92979L13.3847 5.26343C13.5254 5.53979 13.6455 5.82855 13.743 6.12764L15 6.75615V9.24384L13.743 9.87234C13.6455 10.1715 13.5254 10.4602 13.3847 10.7366L13.8293 12.0702L12.0702 13.8293L10.7366 13.3848C10.4603 13.5254 10.1715 13.6456 9.87232 13.743L9.24385 15H6.75615L6.12768 13.7431C5.82854 13.6456 5.53974 13.5255 5.26333 13.3848L3.92979 13.8293L2.17072 12.0702L2.61524 10.7367C2.47455 10.4603 2.35443 10.1715 2.25695 9.87232L1 9.24385V6.75615L2.25698 6.12766C2.35445 5.82855 2.47457 5.53977 2.61526 5.26339L2.17072 3.92979L3.92979 2.17072L5.26342 2.61527C5.53978 2.4746 5.82854 2.35449 6.12764 2.25703L6.75615 1ZM6.98554 3.30342C6.4111 3.42691 5.87481 3.65311 5.39685 3.96186L4.26343 3.58405L3.58405 4.26343L3.96185 5.39683C3.65308 5.8748 3.42687 6.41111 3.30337 6.98557L2.23529 7.51961V8.48039L3.30336 9.01442C3.42684 9.5889 3.65306 10.1252 3.96183 10.6032L3.58405 11.7366L4.26343 12.4159L5.39677 12.0382C5.87477 12.3469 6.4111 12.5732 6.98558 12.6967L7.51961 13.7647H8.48039L9.01442 12.6966C9.5889 12.5732 10.1252 12.3469 10.6032 12.0382L11.7366 12.4159L12.4159 11.7366L12.0382 10.6032C12.3469 10.1252 12.5731 9.5889 12.6966 9.01444L13.7647 8.48039V7.51961L12.6966 6.98555C12.5731 6.41111 12.3469 5.87483 12.0381 5.39686L12.4159 4.26343L11.7366 3.58405L10.6031 3.96187C10.1252 3.65312 9.58889 3.42692 9.01446 3.30343L8.48039 2.23529H7.51961L6.98554 3.30342ZM8 10.0588C9.13706 10.0588 10.0588 9.13706 10.0588 8C10.0588 6.86294 9.13706 5.94118 8 5.94118C6.86294 5.94118 5.94118 6.86294 5.94118 8C5.94118 9.13706 6.86294 10.0588 8 10.0588ZM11.2941 8C11.2941 9.81929 9.81929 11.2941 8 11.2941C6.18071 11.2941 4.70588 9.81929 4.70588 8C4.70588 6.18071 6.18071 4.70588 8 4.70588C9.81929 4.70588 11.2941 6.18071 11.2941 8Z" fill="#202020"/>
</svg>
