<svg width="16" height="16" viewBox="0 0 16 16" fill="none" xmlns="http://www.w3.org/2000/svg">
<path fill-rule="evenodd" clip-rule="evenodd" d="M8.21985 13.6833C8.14691 13.6861 8.07362 13.6875 8 13.6875C7.99387 13.6875 7.98773 13.6875 7.9816 13.6875C7.94357 13.6874 7.90563 13.6869 7.86778 13.686C6.73199 13.6601 5.67845 13.3012 4.80094 12.7032C5.5165 11.7085 6.68374 11.0625 7.99986 11.0625C9.31604 11.0625 10.4833 11.7085 11.1989 12.7033C10.344 13.2859 9.3221 13.6414 8.21985 13.6833ZM12.194 11.8417C11.6023 11.0571 10.7955 10.4439 9.86133 10.0896C10.8458 9.47017 11.5 8.37399 11.5 7.125C11.5 5.192 9.933 3.625 8 3.625C6.067 3.625 4.5 5.192 4.5 7.125C4.5 8.37394 5.15417 9.4701 6.13857 10.0895C5.20439 10.4438 4.39761 11.057 3.80586 11.8415C2.87845 10.8295 2.3125 9.48086 2.3125 8C2.3125 4.85888 4.85888 2.3125 8 2.3125C11.1411 2.3125 13.6875 4.85888 13.6875 8C13.6875 9.48094 13.1215 10.8297 12.194 11.8417ZM3.13194 13.0301C3.13193 13.0301 3.13191 13.0302 3.1319 13.0302C4.39167 14.2496 6.10813 15 7.99986 15C7.99991 15 7.99995 15 8 15C11.866 15 15 11.866 15 8C15 4.13401 11.866 1 8 1C4.13401 1 1 4.13401 1 8C1 9.97421 1.81727 11.7575 3.13194 13.0301ZM8 9.3125C9.20812 9.3125 10.1875 8.33312 10.1875 7.125C10.1875 5.91688 9.20812 4.9375 8 4.9375C6.79188 4.9375 5.8125 5.91688 5.8125 7.125C5.8125 8.33312 6.79188 9.3125 8 9.3125Z" fill="#202020"/>
</svg>
