<svg width="16" height="16" viewBox="0 0 16 16" fill="none" xmlns="http://www.w3.org/2000/svg">
<path fill-rule="evenodd" clip-rule="evenodd" d="M5.9 5.2875C6.72152 5.2875 7.3875 4.62152 7.3875 3.8C7.3875 2.97848 6.72152 2.3125 5.9 2.3125C5.07848 2.3125 4.4125 2.97848 4.4125 3.8C4.4125 4.62152 5.07848 5.2875 5.9 5.2875ZM7.43184 6.1442C8.19552 5.64415 8.7 4.78099 8.7 3.8C8.7 2.2536 7.4464 1 5.9 1C4.3536 1 3.1 2.2536 3.1 3.8C3.1 4.78099 3.60448 5.64415 4.36816 6.1442C2.82173 6.6527 1.61521 7.91019 1.17776 9.4875C1.06191 9.90523 1 10.3454 1 10.8H2.3125H6.6C6.6 13.1196 8.4804 15 10.8 15C13.1196 15 15 13.1196 15 10.8C15 8.4804 13.1196 6.6 10.8 6.6C10.1556 6.6 9.54504 6.74514 8.99931 7.00451C8.53907 6.62824 8.00914 6.33403 7.43184 6.1442ZM7.86358 7.79709C7.29944 7.42745 6.62482 7.2125 5.9 7.2125C4.38193 7.2125 3.08409 8.1554 2.56018 9.4875H6.80916C7.02187 8.84033 7.38761 8.26259 7.86358 7.79709ZM10.8 13.6875C12.3947 13.6875 13.6875 12.3947 13.6875 10.8C13.6875 9.20528 12.3947 7.9125 10.8 7.9125C9.20528 7.9125 7.9125 9.20528 7.9125 10.8C7.9125 12.3947 9.20528 13.6875 10.8 13.6875Z" fill="#202020"/>
<path fill-rule="evenodd" clip-rule="evenodd" d="M10.1438 11.4562V12.9H11.4563V11.4562H12.9V10.1437H11.4563V8.69995H10.1438V10.1437H8.70001V11.4562H10.1438Z" fill="#202020"/>
</svg>
