<svg width="16" height="16" viewBox="0 0 16 16" fill="none" xmlns="http://www.w3.org/2000/svg">
<path d="M7.8328 13C8.31021 13 8.69722 12.613 8.69722 12.1356C8.69722 11.6582 8.31021 11.2711 7.8328 11.2711C7.3554 11.2711 6.96838 11.6582 6.96838 12.1356C6.96838 12.613 7.3554 13 7.8328 13Z" fill="black"/>
<path fill-rule="evenodd" clip-rule="evenodd" d="M8.81554 3.08423C9.60572 3.27114 10.2481 3.80385 10.6325 4.4507C11.2291 5.41378 11.4204 6.99004 10.3527 7.97436L10.3451 7.98136L10.345 7.9813C10.1351 8.1687 9.90793 8.31452 9.71767 8.43343L9.63483 8.48506C9.47138 8.58677 9.33852 8.66945 9.214 8.76467C8.91253 9.00078 8.67506 9.29983 8.54813 9.62139L8.54705 9.62413L8.54704 9.62413C8.52242 9.68568 8.50502 9.78739 8.50502 9.96378C8.50502 10.049 8.50873 10.1375 8.51323 10.2399L8.51372 10.2509L8.51372 10.251C8.51587 10.2998 8.51819 10.3525 8.51993 10.4067H7.22249C7.22117 10.3725 7.21958 10.3361 7.21785 10.2968L7.21781 10.2959C7.21349 10.1974 7.20839 10.0815 7.20839 9.96378C7.20839 9.73395 7.22629 9.43557 7.34257 9.14402C7.56896 8.5713 7.96674 8.09368 8.41808 7.74107L8.42274 7.73743L8.42275 7.73745C8.60257 7.59959 8.79602 7.47951 8.95723 7.37945L8.95724 7.37944L8.95725 7.37944L9.03046 7.33389C9.21524 7.21841 9.35813 7.12347 9.47741 7.01769C9.91234 6.61239 9.94063 5.79204 9.52802 5.12995L9.52398 5.12346L9.52009 5.11688C9.29172 4.73041 8.92337 4.44164 8.51551 4.34568L8.50945 4.34425L8.50946 4.34422C7.51415 4.09992 6.43519 4.75963 6.31416 5.6899C6.27808 6.01034 6.3018 6.34545 6.34515 6.73296H5.04103C5.00322 6.36368 4.97859 5.95675 5.0264 5.53842L5.02733 5.53028L5.02738 5.53028C5.26228 3.68242 7.22 2.69445 8.81554 3.08423Z" fill="black"/>
<path fill-rule="evenodd" clip-rule="evenodd" d="M8 14.5C11.5899 14.5 14.5 11.5899 14.5 8C14.5 4.41015 11.5899 1.5 8 1.5C4.41015 1.5 1.5 4.41015 1.5 8C1.5 11.5899 4.41015 14.5 8 14.5ZM8 16C12.4183 16 16 12.4183 16 8C16 3.58172 12.4183 0 8 0C3.58172 0 0 3.58172 0 8C0 12.4183 3.58172 16 8 16Z" fill="#202020"/>
</svg>
